# xmcd CD database file
#
# Track frame offsets:
#	150
#	15819
#	38555
#	60884
#	79562
#	104193
#	122311
#	145075
#	169445
#	191833
#
# Disc length: 2833 seconds
#
# Revision: 0
# Processed by: cddbd v1.5.2PL0 Copyright (c) Steve Scherf et al.
# Submitted via: Feurio! 1.68 - http://www.feurio.com
#
DISCID=750b0f0a
DTITLE=Will Downing - After Tonight
DYEAR=1900
DGENRE=R&B
TTITLE0=Will's Groove
TTITLE1=Fantasy (Spending Time With You)
TTITLE2=After Tonight
TTITLE3=No One Can Love You More (w/Gerald Albright
TTITLE4=Lover's Melody (w/Roy Ayers)
TTITLE5=Satisfy You
TTITLE6=All I Need Is You (w/Kirk Whalum)
TTITLE7=God Is So Amazing
TTITLE8=You Just Can't Smile It Away (w/Kirk Whalum)
TTITLE9=After Tonight (Between The Sheets Remix)
EXTD=
EXTT0=
EXTT1=
EXTT2=
EXTT3=
EXTT4=
EXTT5=
EXTT6=
EXTT7=
EXTT8=
EXTT9=
PLAYORDER=
